<svg xmlns="http://www.w3.org/2000/svg" viewBox="0 0 1200 800">
  <rect width="1200" height="800" fill="#f3f4f6"/>
  <rect x="90" y="72" width="1020" height="656" rx="42" fill="#fff" stroke="#181818" stroke-opacity=".12"/>
  <rect x="140" y="128" width="320" height="84" rx="24" fill="#181818"/>
  <rect x="500" y="128" width="170" height="84" rx="24" fill="#4285f4"/>
  <rect x="700" y="128" width="170" height="84" rx="24" fill="#fbbc04"/>
  <rect x="900" y="128" width="170" height="84" rx="24" fill="#31a853"/>
  <rect x="140" y="278" width="420" height="320" rx="30" fill="#f8f7f4" stroke="#181818" stroke-opacity=".12"/>
  <rect x="620" y="278" width="450" height="320" rx="30" fill="#202124"/>
  <rect x="180" y="330" width="250" height="22" rx="11" fill="#181818"/>
  <rect x="180" y="376" width="320" height="16" rx="8" fill="#9aa0a6"/>
  <rect x="180" y="412" width="280" height="16" rx="8" fill="#d1d5db"/>
  <rect x="180" y="500" width="120" height="46" rx="23" fill="#4285f4" stroke="#181818" stroke-width="5"/>
  <rect x="665" y="330" width="330" height="14" rx="7" fill="#fbbc04"/>
  <rect x="665" y="370" width="260" height="14" rx="7" fill="#31a853"/>
  <rect x="665" y="410" width="300" height="14" rx="7" fill="#4285f4"/>
  <rect x="665" y="450" width="210" height="14" rx="7" fill="#d93025"/>
</svg>

