<svg width="72" height="72" viewBox="0 0 72 72" fill="none" xmlns="http://www.w3.org/2000/svg">
<path d="M52 44C55.866 44 59 47.134 59 51C59 54.866 55.866 58 52 58H44C40.134 58 37 54.866 37 51C37 47.134 40.134 44 44 44H52ZM52 47C49.7909 47 48 48.7909 48 51C48 53.2091 49.7909 55 52 55C54.2091 55 56 53.2091 56 51C56 48.7909 54.2091 47 52 47Z" fill="white"/>
<path d="M27 41C22.85 41 19.3 39.55 16.35 36.65C13.45 33.7 12 30.15 12 26C12 21.85 13.45 18.325 16.35 15.425C19.3 12.475 22.85 11 27 11H45C49.15 11 52.675 12.475 55.575 15.425C58.525 18.325 60 21.85 60 26C60 30.15 58.525 33.7 55.575 36.65C52.675 39.55 49.15 41 45 41H27ZM27 36.5H45C47.9 36.5 50.375 35.475 52.425 33.425C54.475 31.375 55.5 28.9 55.5 26C55.5 23.1 54.475 20.625 52.425 18.575C50.375 16.525 47.9 15.5 45 15.5H27C24.1 15.5 21.625 16.525 19.575 18.575C17.525 20.625 16.5 23.1 16.5 26C16.5 28.9 17.525 31.375 19.575 33.425C21.625 35.475 24.1 36.5 27 36.5ZM27 28.25C27.65 28.25 28.175 28.05 28.575 27.65C29.025 27.2 29.25 26.65 29.25 26C29.25 25.35 29.025 24.825 28.575 24.425C28.175 23.975 27.65 23.75 27 23.75C26.35 23.75 25.8 23.975 25.35 24.425C24.95 24.825 24.75 25.35 24.75 26C24.75 26.65 24.95 27.2 25.35 27.65C25.8 28.05 26.35 28.25 27 28.25ZM45 28.25C45.65 28.25 46.175 28.05 46.575 27.65C47.025 27.2 47.25 26.65 47.25 26C47.25 25.35 47.025 24.825 46.575 24.425C46.175 23.975 45.65 23.75 45 23.75C44.35 23.75 43.8 23.975 43.35 24.425C42.95 24.825 42.75 25.35 42.75 26C42.75 26.65 42.95 27.2 43.35 27.65C43.8 28.05 44.35 28.25 45 28.25Z" fill="white"/>
<path d="M32.5 53C33.8807 53 35 54.1193 35 55.5C35 56.8807 33.8807 58 32.5 58H22.5C21.1193 58 20 56.8807 20 55.5C20 54.1193 21.1193 53 22.5 53H32.5Z" fill="white"/>
<path d="M14.5 53C15.8807 53 17 54.1193 17 55.5C17 56.8807 15.8807 58 14.5 58C13.1193 58 12 56.8807 12 55.5C12 54.1193 13.1193 53 14.5 53Z" fill="white"/>
<path d="M32.5 44C33.8807 44 35 45.1193 35 46.5C35 47.8807 33.8807 49 32.5 49C31.1193 49 30 47.8807 30 46.5C30 45.1193 31.1193 44 32.5 44Z" fill="white"/>
<path d="M24.5 44C25.8807 44 27 45.1193 27 46.5C27 47.8807 25.8807 49 24.5 49H17.5C16.1193 49 15 47.8807 15 46.5C15 45.1193 16.1193 44 17.5 44H24.5Z" fill="white"/>
</svg>
